<svg xmlns="http://www.w3.org/2000/svg" viewBox="0 0 160 160">
    <rect width="160" height="160" rx="32" fill="#0D3555"/>
    <g fill="#fff">
        <path d="M32.3 53.1C41.6 32.7 60.4 21 80 21s38.4 11.7 47.7 32.1h-5.9C113 36.2 97.1 26.5 80 26.5s-33 9.7-41.8 26.6h-5.9Z"/>
        <path d="M127.4 106.9C118 127.2 99.4 139 80 139s-38-11.8-47.4-32.1h6C47.5 123.8 63.1 133.5 80 133.5s32.5-9.7 41.4-26.6h6Z"/>
        <path d="m25.8 101.5 22.8-44.3 23.5 44.3H62L48.7 76.1l-12.9 25.4h-10Z"/>
        <path d="M76.3 57.2h8.6v44.3h-8.6V57.2Z"/>
        <path d="M89.2 57.2H99l14.1 29.3 14.3-29.3h10.2l-24.5 47.2-23.9-47.2Z"/>
    </g>
</svg>
